<?xml version="1.0" standalone="no"?>
<!DOCTYPE svg PUBLIC "-//W3C//DTD SVG 20010904//EN"
 "http://www.w3.org/TR/2001/REC-SVG-20010904/DTD/svg10.dtd">
<svg version="1.0" xmlns="http://www.w3.org/2000/svg"
 width="1000.000000pt" height="1000.000000pt" viewBox="0 0 1000.000000 1000.000000"
 preserveAspectRatio="xMidYMid meet">
<metadata>
Created by potrace 1.14, written by Peter Selinger 2001-2017
</metadata>
<g transform="translate(0.000000,1000.000000) scale(0.100000,-0.100000)"
fill="#000000" stroke="none">
<path d="M3871 9163 c-5 -10 -605 -1424 -1334 -3143 -1425 -3359 -1385 -3267
-1481 -3458 -192 -383 -365 -617 -513 -695 -98 -50 -302 -113 -466 -141 l-37
-7 0 -99 0 -100 1175 0 1175 0 0 99 0 99 -67 6 c-515 51 -714 149 -779 384
-16 56 -16 75 -6 156 24 189 67 308 370 1021 123 292 243 575 267 630 l42 100
1445 3 c1151 2 1447 0 1451 -10 3 -7 98 -238 212 -513 396 -957 439 -1084 440
-1305 0 -97 -2 -110 -31 -170 -33 -70 -103 -147 -169 -185 -88 -51 -275 -96
-462 -110 l-93 -8 0 -98 0 -99 1040 0 1040 0 132 -44 c222 -74 419 -106 658
-106 713 0 1246 319 1696 1016 85 131 216 409 268 566 41 126 96 352 96 398 0
13 -24 36 -75 70 -41 27 -78 50 -83 50 -6 0 -29 -48 -52 -106 -24 -58 -71
-162 -106 -231 -243 -482 -567 -745 -1029 -839 -139 -28 -463 -26 -605 5 -365
78 -677 266 -951 574 -363 408 -541 918 -575 1650 l-6 147 1742 0 1743 0 -6
158 c-12 311 -83 609 -207 867 -143 297 -397 580 -677 754 -215 133 -449 217
-721 258 -133 20 -487 23 -622 5 -524 -70 -951 -285 -1318 -667 -245 -254
-417 -545 -536 -908 l-42 -128 -869 2085 -868 2086 -98 0 c-83 0 -100 -3 -108
-17z m652 -3733 l413 -995 -1265 -3 c-695 -1 -1266 0 -1269 2 -3 3 1202 2843
1269 2989 14 30 -84 260 852 -1993z m3423 875 c257 -65 494 -236 645 -464 126
-190 168 -350 204 -773 l7 -78 -1171 0 -1171 0 4 23 c3 12 8 45 11 72 14 116
56 285 102 410 103 278 290 511 542 672 241 155 554 207 827 138z"/>
</g>
</svg>
